<mxfile host="app.diagrams.net" modified="2024-03-29T14:50:42.342Z" agent="Mozilla/5.0 (Windows NT 10.0; Win64; x64) AppleWebKit/537.36 (KHTML, like Gecko) Chrome/123.0.0.0 Safari/537.36" version="24.2.1" etag="5FrMptk7YGYpS1sRZ8pe" type="github">
  <diagram name="Page-1" id="dXSTIHbL42pqZD8Z2yK9">
    <mxGraphModel>
      <root>
        <mxCell id="0" />
        <mxCell id="1" parent="0" />
      </root>
    </mxGraphModel>
  </diagram>
</mxfile>
